<svg width="44" height="48" viewBox="0 0 44 48" fill="none" xmlns="http://www.w3.org/2000/svg">
<path d="M8.66675 48C7.20008 48 5.94453 47.4778 4.90008 46.4333C3.85564 45.3889 3.33341 44.1333 3.33341 42.6667V8H0.666748V2.66667H14.0001V0L30.0001 0V2.66667H43.3334V8H40.6667V42.6667C40.6667 44.1333 40.1445 45.3889 39.1001 46.4333C38.0556 47.4778 36.8001 48 35.3334 48H8.66675ZM35.3334 8H8.66675V42.6667H35.3334V8ZM14.0001 37.3333H19.3334V13.3333H14.0001V37.3333ZM24.6667 37.3333H30.0001V13.3333H24.6667V37.3333Z" fill="url(#paint0_linear_3449_1318)"/>
<defs>
<linearGradient id="paint0_linear_3449_1318" x1="0.666748" y1="24" x2="49.1408" y2="24" gradientUnits="userSpaceOnUse">
<stop stop-color="#668D12"/>
<stop offset="1" stop-color="#ACC43F"/>
</linearGradient>
</defs>
</svg>
