<svg width="13" height="13" viewBox="0 0 13 13" fill="none" xmlns="http://www.w3.org/2000/svg">
<g clip-path="url(#clip0_1_6191)">
<mask id="mask0_1_6191" style="mask-type:alpha" maskUnits="userSpaceOnUse" x="-1" y="-12" width="25" height="25">
<rect x="-0.347656" y="-11.1475" width="24" height="24" fill="#D9D9D9"/>
</mask>
<g mask="url(#mask0_1_6191)">
<path d="M6.31169 8.84407C7.20544 8.12185 7.88026 7.42671 8.33616 6.75866C8.79207 6.0906 9.02002 5.46317 9.02002 4.87636C9.02002 4.37081 8.92748 3.93973 8.74241 3.58314C8.55735 3.22654 8.32939 2.93765 8.05856 2.71647C7.78773 2.49529 7.49433 2.33505 7.17835 2.23574C6.86238 2.13643 6.57349 2.08678 6.31169 2.08678C6.04988 2.08678 5.76099 2.13643 5.44502 2.23574C5.12905 2.33505 4.83564 2.49529 4.56481 2.71647C4.29398 2.93765 4.06603 3.22654 3.88096 3.58314C3.69589 3.93973 3.60335 4.37081 3.60335 4.87636C3.60335 5.46317 3.8313 6.0906 4.28721 6.75866C4.74311 7.42671 5.41794 8.12185 6.31169 8.84407ZM6.31169 10.2118C5.03877 9.27289 4.0886 8.36109 3.46117 7.47636C2.83373 6.59164 2.52002 5.72498 2.52002 4.87636C2.52002 4.23539 2.63512 3.67341 2.86533 3.19043C3.09554 2.70744 3.3912 2.30345 3.75231 1.97845C4.11342 1.65345 4.51967 1.4097 4.97106 1.2472C5.42245 1.0847 5.86932 1.00345 6.31169 1.00345C6.75405 1.00345 7.20092 1.0847 7.65231 1.2472C8.1037 1.4097 8.50995 1.65345 8.87106 1.97845C9.23217 2.30345 9.52783 2.70744 9.75804 3.19043C9.98825 3.67341 10.1034 4.23539 10.1034 4.87636C10.1034 5.72498 9.78964 6.59164 9.16221 7.47636C8.53478 8.36109 7.5846 9.27289 6.31169 10.2118ZM6.31169 5.87845C6.6096 5.87845 6.86464 5.77237 7.07679 5.56022C7.28894 5.34807 7.39502 5.09303 7.39502 4.79511C7.39502 4.4972 7.28894 4.24216 7.07679 4.03001C6.86464 3.81786 6.6096 3.71178 6.31169 3.71178C6.01377 3.71178 5.75873 3.81786 5.54658 4.03001C5.33443 4.24216 5.22835 4.4972 5.22835 4.79511C5.22835 5.09303 5.33443 5.34807 5.54658 5.56022C5.75873 5.77237 6.01377 5.87845 6.31169 5.87845ZM2.52002 11.8368V10.7534H10.1034V11.8368H2.52002Z" fill="#030401"/>
</g>
</g>
<defs>
<clipPath id="clip0_1_6191">
<rect width="13" height="13" fill="white" transform="matrix(1 0 0 -1 0 13)"/>
</clipPath>
</defs>
</svg>
