<svg width="48" height="48" viewBox="0 0 48 48" fill="none" xmlns="http://www.w3.org/2000/svg">
<path fill-rule="evenodd" clip-rule="evenodd" d="M20.8425 9.00879C19.455 9.00879 18.1785 9.79779 17.5575 11.0383L17.0745 12.0088H13.5C11.0325 12.0088 9 14.0413 9 16.5088V31.5088C9 33.9763 11.0325 36.0088 13.5 36.0088H34.5C36.9675 36.0088 39 33.9763 39 31.5088V16.5088C39 14.0413 36.9675 12.0088 34.5 12.0088H30.9255L30.4425 11.0383C30.1366 10.429 29.6675 9.91657 29.0875 9.55822C28.5075 9.19988 27.8393 9.00967 27.1575 9.00879H20.8425ZM20.8425 12.0088H27.1575C27.4155 12.0088 27.6435 12.1513 27.7575 12.3808L28.6575 14.1808C28.7823 14.4299 28.974 14.6392 29.2111 14.7855C29.4482 14.9317 29.7214 15.0091 30 15.0088H34.5C35.346 15.0088 36 15.6628 36 16.5088V31.5088C36 32.3548 35.346 33.0088 34.5 33.0088H13.5C12.654 33.0088 12 32.3548 12 31.5088V16.5088C12 15.6628 12.654 15.0088 13.5 15.0088H18C18.2787 15.0089 18.552 14.9314 18.7892 14.7849C19.0263 14.6383 19.2179 14.4286 19.3425 14.1793L20.2425 12.3793C20.2978 12.2676 20.3834 12.1736 20.4894 12.1081C20.5955 12.0426 20.7178 12.0082 20.8425 12.0088ZM4.5 3.00879C4.10218 3.00879 3.72064 3.16682 3.43934 3.44813C3.15804 3.72943 3 4.11096 3 4.50879V10.5088C3 10.9066 3.15804 11.2881 3.43934 11.5694C3.72064 11.8508 4.10218 12.0088 4.5 12.0088C4.89782 12.0088 5.27936 11.8508 5.56066 11.5694C5.84196 11.2881 6 10.9066 6 10.5088V6.00879H10.5C10.8978 6.00879 11.2794 5.85075 11.5607 5.56945C11.842 5.28814 12 4.90661 12 4.50879C12 4.11096 11.842 3.72943 11.5607 3.44813C11.2794 3.16682 10.8978 3.00879 10.5 3.00879H4.5ZM4.5 36.0088C4.10218 36.0088 3.72064 36.1668 3.43934 36.4481C3.15804 36.7294 3 37.111 3 37.5088V43.5088C3 43.9066 3.15804 44.2881 3.43934 44.5694C3.72064 44.8508 4.10218 45.0088 4.5 45.0088H10.5C10.8978 45.0088 11.2794 44.8508 11.5607 44.5694C11.842 44.2881 12 43.9066 12 43.5088C12 43.111 11.842 42.7294 11.5607 42.4481C11.2794 42.1668 10.8978 42.0088 10.5 42.0088H6V37.5088C6 37.111 5.84196 36.7294 5.56066 36.4481C5.27936 36.1668 4.89782 36.0088 4.5 36.0088ZM37.5 3.00879C37.1022 3.00879 36.7206 3.16682 36.4393 3.44813C36.158 3.72943 36 4.11096 36 4.50879C36 4.70577 36.0388 4.90083 36.1142 5.08281C36.1896 5.2648 36.3001 5.43016 36.4393 5.56945C36.7206 5.85075 37.1022 6.00879 37.5 6.00879H42V10.5088C42 10.9066 42.158 11.2881 42.4393 11.5694C42.7206 11.8508 43.1022 12.0088 43.5 12.0088C43.8978 12.0088 44.2794 11.8508 44.5607 11.5694C44.842 11.2881 45 10.9066 45 10.5088V4.50879C45 4.11096 44.842 3.72943 44.5607 3.44813C44.2794 3.16682 43.8978 3.00879 43.5 3.00879H37.5ZM43.5 36.0088C43.1022 36.0088 42.7206 36.1668 42.4393 36.4481C42.158 36.7294 42 37.111 42 37.5088V42.0088H37.5C37.1022 42.0088 36.7206 42.1668 36.4393 42.4481C36.158 42.7294 36 43.111 36 43.5088C36 43.9066 36.158 44.2881 36.4393 44.5694C36.7206 44.8508 37.1022 45.0088 37.5 45.0088H43.5C43.8978 45.0088 44.2794 44.8508 44.5607 44.5694C44.842 44.2881 45 43.9066 45 43.5088V37.5088C45 37.111 44.842 36.7294 44.5607 36.4481C44.2794 36.1668 43.8978 36.0088 43.5 36.0088Z" fill="#BEBEBE"/>
<path fill-rule="evenodd" clip-rule="evenodd" d="M24 18.0088C20.7045 18.0088 18 20.7133 18 24.0088C18 27.3043 20.7045 30.0088 24 30.0088C27.2955 30.0088 30 27.3043 30 24.0088C30 20.7133 27.2955 18.0088 24 18.0088ZM24 21.0088C25.674 21.0088 27 22.3333 27 24.0088C27 25.6843 25.674 27.0088 24 27.0088C22.326 27.0088 21 25.6828 21 24.0088C21 22.3348 22.326 21.0088 24 21.0088Z" fill="#BEBEBE"/>
</svg>
