<svg width="48" height="48" viewBox="0 0 48 48" fill="none" xmlns="http://www.w3.org/2000/svg">
<path d="M4 28.9996C4 30.1815 4.23279 31.3519 4.68508 32.4438C5.13738 33.5357 5.80031 34.5279 6.63604 35.3636C8.32387 37.0514 10.6131 37.9996 13 37.9996H37C38.7719 38.0028 40.4791 37.3339 41.7772 36.1278C43.0754 34.9218 43.8678 33.2683 43.9946 31.5009C44.1215 29.7335 43.5734 27.9838 42.4609 26.6046C41.3484 25.2255 39.7542 24.3196 38 24.0696C38.0195 20.6672 36.7993 17.374 34.5674 14.8058C32.3354 12.2376 29.2446 10.5701 25.8726 10.1151C22.5007 9.66 19.0784 10.4485 16.2455 12.3332C13.4127 14.2179 11.3631 17.0697 10.48 20.3556C8.61024 20.9017 6.96797 22.0393 5.7996 23.5978C4.63123 25.1564 3.99978 27.0518 4 28.9996Z" stroke="#BEBEBE" stroke-width="3" stroke-linejoin="round"/>
<path d="M28 22L24 18M24 18L20 22M24 18V30" stroke="#BEBEBE" stroke-width="3" stroke-linecap="round" stroke-linejoin="round"/>
</svg>
