<svg width="25" height="24" viewBox="0 0 25 24" fill="none" xmlns="http://www.w3.org/2000/svg">
<g clip-path="url(#clip0_1_829)">
<path d="M12.5 2C18.023 2 22.5 6.477 22.5 12C22.5 17.523 18.023 22 12.5 22C10.798 22.0025 9.12369 21.5687 7.63701 20.74L7.33201 20.562L4.30001 21.454C4.13501 21.5026 3.96033 21.5083 3.79252 21.4705C3.62472 21.4327 3.46935 21.3526 3.34115 21.238C3.21294 21.1233 3.11615 20.9778 3.05995 20.8152C3.00375 20.6526 2.99 20.4784 3.02001 20.309L3.04601 20.2L3.93801 17.168C2.99497 15.6093 2.49759 13.8218 2.50001 12C2.50001 6.477 6.97701 2 12.5 2ZM12.5 4C11.0676 3.99974 9.66147 4.38406 8.42834 5.11281C7.19521 5.84157 6.18036 6.88804 5.48977 8.14294C4.79918 9.39784 4.45817 10.8151 4.50237 12.2468C4.54656 13.6785 4.97433 15.0721 5.74101 16.282C5.93901 16.594 6.02401 16.978 5.95701 17.359L5.91801 17.522L5.47701 19.023L6.97801 18.582C7.41101 18.454 7.86101 18.532 8.21801 18.759C9.26634 19.4228 10.4547 19.8336 11.6892 19.959C12.9236 20.0844 14.1703 19.921 15.3307 19.4816C16.4911 19.0422 17.5334 18.3389 18.3752 17.4273C19.217 16.5157 19.8352 15.4208 20.1809 14.2291C20.5266 13.0374 20.5904 11.7817 20.3673 10.5611C20.1441 9.34053 19.64 8.1886 18.895 7.19638C18.15 6.20415 17.1843 5.39883 16.0744 4.84408C14.9645 4.28933 13.7408 4.00036 12.5 4ZM9.60201 7.184C9.71272 7.13606 9.83401 7.11776 9.95394 7.13091C10.0739 7.14406 10.1883 7.1882 10.286 7.259C10.79 7.627 11.19 8.121 11.534 8.603L11.861 9.077L12.014 9.302C12.1023 9.43108 12.1456 9.58563 12.1373 9.74179C12.129 9.89795 12.0695 10.047 11.968 10.166L11.893 10.242L10.969 10.928C10.9245 10.9602 10.8932 11.0074 10.8809 11.0609C10.8686 11.1144 10.8761 11.1706 10.902 11.219C11.112 11.599 11.483 12.166 11.909 12.592C12.336 13.018 12.929 13.414 13.335 13.647C13.423 13.697 13.529 13.681 13.601 13.616L13.639 13.571L14.24 12.656C14.3503 12.509 14.5133 12.4105 14.6947 12.381C14.8761 12.3516 15.0618 12.3935 15.213 12.498L15.756 12.877C16.296 13.262 16.815 13.676 17.226 14.201C17.3024 14.2995 17.351 14.4167 17.3667 14.5403C17.3823 14.664 17.3645 14.7896 17.315 14.904C16.919 15.828 15.916 16.615 14.874 16.577L14.715 16.567L14.524 16.549C14.488 16.5447 14.452 16.5401 14.416 16.535L14.178 16.495C13.254 16.321 11.773 15.797 10.238 14.263C8.70401 12.728 8.18001 11.247 8.00601 10.323L7.96601 10.085L7.94101 9.877L7.92801 9.702C7.92643 9.67701 7.92509 9.65201 7.92401 9.627C7.88601 8.583 8.67701 7.58 9.60201 7.184Z" fill="url(#paint0_linear_1_829)"/>
</g>
<defs>
<linearGradient id="paint0_linear_1_829" x1="2.5" y1="12" x2="25.2222" y2="12" gradientUnits="userSpaceOnUse">
<stop stop-color="#668D12"/>
<stop offset="1" stop-color="#ACC43F"/>
</linearGradient>
<clipPath id="clip0_1_829">
<rect width="24" height="24" fill="white" transform="translate(0.5)"/>
</clipPath>
</defs>
</svg>
