<svg width="74" height="59" viewBox="0 0 74 59" fill="none" xmlns="http://www.w3.org/2000/svg">
<path d="M31.4731 7.44414L25.5647 13.3326C23.7956 13.8166 22.1538 14.7039 20.7663 15.9254L17.6906 18.6564C16.5112 19.7051 14.9734 20.2813 13.3894 20.2813H11.1V35.0313C13.4587 35.1004 15.7019 36.0568 17.3784 37.7277L21.4947 41.8301L22.3041 42.6367L25.4259 45.7481C26.1428 46.4625 27.3222 46.4625 28.0391 45.7481C28.2356 45.5522 28.3859 45.3217 28.4669 45.0797C28.7906 44.1924 29.5422 43.524 30.4672 43.3166C31.3922 43.1092 32.3634 43.3857 33.0341 44.0656L34.2828 45.2871C35.6241 46.6238 37.7978 46.6238 39.1275 45.2871C39.7519 44.6648 40.0872 43.8697 40.1219 43.0516C40.1681 42.0375 40.7694 41.1387 41.6944 40.7008C42.6194 40.2629 43.6947 40.3551 44.5156 40.9428C45.6025 41.7148 47.1172 41.6111 48.0884 40.6432C49.1753 39.56 49.1753 37.8084 48.0884 36.7367L39.3241 28.002L35.1847 31.8047C32.0281 34.7086 27.1834 34.7547 23.9691 31.9084C20.3038 28.6588 20.2228 22.9893 23.7841 19.6359L31.8894 12.0074C35.0575 9.03437 39.2431 7.375 43.6022 7.375C47.7763 7.375 51.8116 8.90762 54.9219 11.6617L58.4022 14.75H72.15C73.1675 14.75 74 15.5797 74 16.5938V40.5625C74 42.6021 72.3466 44.25 70.3 44.25H66.6C65.2356 44.25 64.0331 43.5125 63.3972 42.4063H53.5806C53.1875 43.1783 52.6672 43.9158 52.0197 44.5611C50.0425 46.5316 47.3022 47.3037 44.7353 46.8773C44.3191 47.7186 43.7525 48.5022 43.0472 49.2051C39.8906 52.351 34.9534 52.6621 31.4384 50.1385C28.5362 52.5354 24.2119 52.3856 21.4947 49.666L18.3844 46.5547L17.575 45.7481L13.4588 41.6457C12.8228 41.0119 11.9903 40.6432 11.1 40.574C11.1 42.6021 9.435 44.25 7.4 44.25H3.7C1.65344 44.25 0 42.6021 0 40.5625V16.5938C0 15.5797 0.8325 14.75 1.85 14.75H13.3894C13.6206 14.75 13.8403 14.6693 14.0022 14.5195L17.0663 11.8C20.2922 8.95371 24.4431 7.375 28.7559 7.375H29.9469C30.4556 7.375 30.9759 7.39805 31.4731 7.44414ZM62.9 36.875V20.2813H57.35C56.6678 20.2813 56.0088 20.0277 55.5116 19.5783L51.245 15.7986C49.1406 13.9318 46.4234 12.9063 43.6022 12.9063C40.6653 12.9063 37.8441 14.024 35.705 16.0291L27.5997 23.6576C26.4088 24.7869 26.4319 26.6883 27.6575 27.7715C28.7328 28.7279 30.3631 28.7049 31.4153 27.7369L39.7288 20.0854C40.8503 19.0482 42.6078 19.1174 43.6484 20.2467C44.6891 21.376 44.6197 23.116 43.4866 24.1531L43.3941 24.2453L51.9966 32.8188C53.1528 33.9711 53.9044 35.3885 54.2397 36.8635H62.9V36.875ZM7.4 38.7188C7.4 38.2298 7.20509 37.7608 6.85815 37.415C6.51121 37.0693 6.04065 36.875 5.55 36.875C5.05935 36.875 4.58879 37.0693 4.24185 37.415C3.89491 37.7608 3.7 38.2298 3.7 38.7188C3.7 39.2077 3.89491 39.6767 4.24185 40.0225C4.58879 40.3683 5.05935 40.5625 5.55 40.5625C6.04065 40.5625 6.51121 40.3683 6.85815 40.0225C7.20509 39.6767 7.4 39.2077 7.4 38.7188ZM68.45 40.5625C68.9407 40.5625 69.4112 40.3683 69.7581 40.0225C70.1051 39.6767 70.3 39.2077 70.3 38.7188C70.3 38.2298 70.1051 37.7608 69.7581 37.415C69.4112 37.0693 68.9407 36.875 68.45 36.875C67.9594 36.875 67.4888 37.0693 67.1419 37.415C66.7949 37.7608 66.6 38.2298 66.6 38.7188C66.6 39.2077 66.7949 39.6767 67.1419 40.0225C67.4888 40.3683 67.9594 40.5625 68.45 40.5625Z" fill="url(#paint0_linear_1_1824)"/>
<defs>
<linearGradient id="paint0_linear_1_1824" x1="0" y1="29.6015" x2="84.0722" y2="29.6015" gradientUnits="userSpaceOnUse">
<stop stop-color="#668D12"/>
<stop offset="1" stop-color="#ACC43F"/>
</linearGradient>
</defs>
</svg>
