<svg width="64" height="64" viewBox="0 0 64 64" fill="none" xmlns="http://www.w3.org/2000/svg">
<path fill-rule="evenodd" clip-rule="evenodd" d="M27.79 12.0117C25.94 12.0117 24.238 13.0637 23.41 14.7177L22.766 16.0117H18C14.71 16.0117 12 18.7217 12 22.0117V42.0117C12 45.3017 14.71 48.0117 18 48.0117H46C49.29 48.0117 52 45.3017 52 42.0117V22.0117C52 18.7217 49.29 16.0117 46 16.0117H41.234L40.59 14.7177C40.1821 13.9053 39.5567 13.2221 38.7833 12.7443C38.0099 12.2665 37.1191 12.0129 36.21 12.0117H27.79ZM27.79 16.0117H36.21C36.554 16.0117 36.858 16.2017 37.01 16.5077L38.21 18.9077C38.3764 19.2398 38.632 19.519 38.9482 19.714C39.2643 19.909 39.6285 20.0121 40 20.0117H46C47.128 20.0117 48 20.8837 48 22.0117V42.0117C48 43.1397 47.128 44.0117 46 44.0117H18C16.872 44.0117 16 43.1397 16 42.0117V22.0117C16 20.8837 16.872 20.0117 18 20.0117H24C24.3717 20.0119 24.736 19.9085 25.0522 19.7131C25.3684 19.5178 25.6239 19.2382 25.79 18.9057L26.99 16.5057C27.0637 16.3568 27.1778 16.2315 27.3193 16.1442C27.4607 16.0568 27.6238 16.0109 27.79 16.0117ZM6 4.01172C5.46957 4.01172 4.96086 4.22243 4.58579 4.59751C4.21071 4.97258 4 5.48129 4 6.01172V14.0117C4 14.5422 4.21071 15.0509 4.58579 15.4259C4.96086 15.801 5.46957 16.0117 6 16.0117C6.53043 16.0117 7.03914 15.801 7.41421 15.4259C7.78929 15.0509 8 14.5422 8 14.0117V8.01172H14C14.5304 8.01172 15.0391 7.80101 15.4142 7.42593C15.7893 7.05086 16 6.54215 16 6.01172C16 5.48129 15.7893 4.97258 15.4142 4.59751C15.0391 4.22243 14.5304 4.01172 14 4.01172H6ZM6 48.0117C5.46957 48.0117 4.96086 48.2224 4.58579 48.5975C4.21071 48.9726 4 49.4813 4 50.0117V58.0117C4 58.5422 4.21071 59.0509 4.58579 59.4259C4.96086 59.801 5.46957 60.0117 6 60.0117H14C14.5304 60.0117 15.0391 59.801 15.4142 59.4259C15.7893 59.0509 16 58.5422 16 58.0117C16 57.4813 15.7893 56.9726 15.4142 56.5975C15.0391 56.2224 14.5304 56.0117 14 56.0117H8V50.0117C8 49.4813 7.78929 48.9726 7.41421 48.5975C7.03914 48.2224 6.53043 48.0117 6 48.0117ZM50 4.01172C49.4696 4.01172 48.9609 4.22243 48.5858 4.59751C48.2107 4.97258 48 5.48129 48 6.01172C48 6.27436 48.0517 6.53443 48.1522 6.77709C48.2528 7.01974 48.4001 7.24022 48.5858 7.42593C48.9609 7.80101 49.4696 8.01172 50 8.01172H56V14.0117C56 14.5422 56.2107 15.0509 56.5858 15.4259C56.9609 15.801 57.4696 16.0117 58 16.0117C58.5304 16.0117 59.0391 15.801 59.4142 15.4259C59.7893 15.0509 60 14.5422 60 14.0117V6.01172C60 5.48129 59.7893 4.97258 59.4142 4.59751C59.0391 4.22243 58.5304 4.01172 58 4.01172H50ZM58 48.0117C57.4696 48.0117 56.9609 48.2224 56.5858 48.5975C56.2107 48.9726 56 49.4813 56 50.0117V56.0117H50C49.4696 56.0117 48.9609 56.2224 48.5858 56.5975C48.2107 56.9726 48 57.4813 48 58.0117C48 58.5422 48.2107 59.0509 48.5858 59.4259C48.9609 59.801 49.4696 60.0117 50 60.0117H58C58.5304 60.0117 59.0391 59.801 59.4142 59.4259C59.7893 59.0509 60 58.5422 60 58.0117V50.0117C60 49.4813 59.7893 48.9726 59.4142 48.5975C59.0391 48.2224 58.5304 48.0117 58 48.0117Z" fill="url(#paint0_linear_1_1187)"/>
<path fill-rule="evenodd" clip-rule="evenodd" d="M32 24.0117C27.606 24.0117 24 27.6177 24 32.0117C24 36.4057 27.606 40.0117 32 40.0117C36.394 40.0117 40 36.4057 40 32.0117C40 27.6177 36.394 24.0117 32 24.0117ZM32 28.0117C34.232 28.0117 36 29.7777 36 32.0117C36 34.2457 34.232 36.0117 32 36.0117C29.768 36.0117 28 34.2437 28 32.0117C28 29.7797 29.768 28.0117 32 28.0117Z" fill="url(#paint1_linear_1_1187)"/>
<defs>
<linearGradient id="paint0_linear_1_1187" x1="4" y1="32.0117" x2="67.6222" y2="32.0117" gradientUnits="userSpaceOnUse">
<stop stop-color="#668D12"/>
<stop offset="1" stop-color="#ACC43F"/>
</linearGradient>
<linearGradient id="paint1_linear_1_1187" x1="24" y1="32.0117" x2="42.1778" y2="32.0117" gradientUnits="userSpaceOnUse">
<stop stop-color="#668D12"/>
<stop offset="1" stop-color="#ACC43F"/>
</linearGradient>
</defs>
</svg>
